<svg xmlns="http://www.w3.org/2000/svg" xmlns:xlink="http://www.w3.org/1999/xlink" width="1200" height="630" viewBox="0 0 1200 630">
  <defs>
    <pattern id="dots" width="32" height="32" patternUnits="userSpaceOnUse">
      <circle cx="3" cy="3" r="2" fill="#48301F" opacity="0.12"/>
    </pattern>
    <clipPath id="goose-clip">
      <rect x="780" y="82" width="360" height="360" rx="34"/>
    </clipPath>
  </defs>

  <rect width="1200" height="630" fill="#83CED5"/>
  <rect width="1200" height="630" fill="url(#dots)"/>

  <rect x="70" y="66" width="666" height="506" rx="38" fill="#48301F"/>
  <rect x="60" y="56" width="666" height="506" rx="38" fill="#FFFEFB" stroke="#48301F" stroke-width="5"/>
  <rect x="60" y="56" width="666" height="28" rx="14" fill="#F8CB10"/>
  <rect x="60" y="75" width="666" height="9" fill="#F5AC4B"/>

  <rect x="104" y="122" width="329" height="48" rx="24" fill="#F8CB10" stroke="#48301F" stroke-width="3"/>
  <text x="128" y="153" fill="#48301F" font-family="Arial, sans-serif" font-size="20" font-weight="800">WATERLOO SOFTWARE ENGINEERING · 2031</text>

  <text x="102" y="280" fill="#48301F" font-family="Georgia, serif" font-size="82" font-weight="700" letter-spacing="-3">SE31 Nest</text>
  <text x="106" y="342" fill="#48301F" font-family="Arial, sans-serif" font-size="31" font-weight="700">Our cohort, all in one place.</text>

  <circle cx="113" cy="414" r="9" fill="#83CED5" stroke="#48301F" stroke-width="2"/>
  <text x="134" y="424" fill="#5D584B" font-family="Arial, sans-serif" font-size="24" font-weight="600">Courses, dates and trusted links</text>
  <circle cx="113" cy="466" r="9" fill="#F5AC4B" stroke="#48301F" stroke-width="2"/>
  <text x="134" y="476" fill="#5D584B" font-family="Arial, sans-serif" font-size="24" font-weight="600">Built and checked by students</text>

  <rect x="790" y="92" width="360" height="360" rx="34" fill="#48301F"/>
  <image x="780" y="82" width="360" height="360" xlink:href="favicon.png" href="favicon.png" preserveAspectRatio="xMidYMid slice" clip-path="url(#goose-clip)"/>
  <rect x="780" y="82" width="360" height="360" rx="34" fill="none" stroke="#48301F" stroke-width="6"/>

  <path d="M808 488H1124" stroke="#48301F" stroke-width="8" stroke-linecap="round"/>
  <path d="M808 488H1048" stroke="#F8CB10" stroke-width="8" stroke-linecap="round"/>
  <text x="816" y="538" fill="#48301F" font-family="Arial, sans-serif" font-size="23" font-weight="800">UNOFFICIAL · OPEN SOURCE</text>
</svg>
